<svg width="258" height="305" viewBox="0 0 258 305" fill="none" xmlns="http://www.w3.org/2000/svg">
<mask id="mask0" style="mask-type:alpha" maskUnits="userSpaceOnUse" x="0" y="0" width="258" height="305">
<path d="M14.9567 121.675C12.1777 81.3045 31.1156 0.563599 129.1 0.563599C227.085 0.563599 246.023 81.3045 243.244 121.675L239.573 123.156V129.356C241.695 130.787 242.229 132.579 242.23 133.296C242.726 139.704 242.923 144.238 243.082 147.892C243.605 159.904 243.714 162.415 252.675 190.748C263.642 225.424 253.623 243.187 247.646 253.783C247.254 254.479 246.878 255.144 246.528 255.781C240.839 266.115 228.766 285.115 224.563 291.336C221.201 296.312 214.644 299.35 211.786 300.246C208.395 301.283 200.252 303.592 194.805 304.534C189.358 305.475 182.056 303.805 179.086 302.852L133.706 285.93H124.495L79.115 302.852C76.1448 303.805 68.8426 305.475 63.3954 304.534C57.9481 303.592 49.8053 301.283 46.4147 300.246C43.5566 299.35 36.9998 296.312 33.6373 291.336C29.4341 285.115 17.3611 266.115 11.6726 255.781C11.3221 255.144 10.9471 254.479 10.5546 253.783C4.57779 243.187 -5.44112 225.424 5.5256 190.748C14.4863 162.415 14.5955 159.904 15.1181 147.892C15.2771 144.238 15.4744 139.704 15.9708 133.296C15.9721 132.579 16.5053 130.787 18.6276 129.356V123.156L14.9567 121.675Z" fill="#C4C4C4"/>
</mask>
<g mask="url(#mask0)">
<mask id="mask1" style="mask-type:alpha" maskUnits="userSpaceOnUse" x="128" y="-6" width="124" height="129">
<path d="M128.841 106.048V-5.17615C168.772 2.83577 249.097 18.8596 250.958 18.8596C252.819 18.8596 246.755 88.1254 243.668 122.733C226.039 110.881 183.071 107.688 128.841 106.048Z" fill="#711A1A"/>
</mask>
<g mask="url(#mask1)">
<path d="M128.841 106.048V-5.17615C168.772 2.83577 249.097 18.8596 250.958 18.8596C252.819 18.8596 246.755 88.1254 243.668 122.733C226.039 110.881 183.071 107.688 128.841 106.048Z" fill="#711A1A"/>
<path d="M128.841 117.629V83.6069C128.841 83.6069 178.374 83.9888 201.127 87.0323C226.76 90.461 251.321 102.104 251.321 102.104C251.321 102.104 246.755 112.147 243.668 122.733C226.039 119.108 183.071 118.131 128.841 117.629Z" fill="#681111"/>
<path d="M128.841 117.813V85.0143C128.841 85.0143 178.374 85.3824 201.127 88.3165C226.76 91.6218 251.321 102.846 251.321 102.846C251.321 102.846 246.755 112.528 243.668 122.733C226.039 119.238 183.071 118.297 128.841 117.813Z" fill="#7B2424"/>
</g>
<mask id="mask2" style="mask-type:alpha" maskUnits="userSpaceOnUse" x="133" y="125" width="87" height="115">
<path d="M133.286 187.501L134.51 136.282L161.831 125.301L212.695 163.875L219.705 187.501L214.772 191.879L218.147 197.884L193.485 239.42L146.993 192.904L135.006 191.879L133.286 187.501Z" fill="#C4C4C4"/>
</mask>
<g mask="url(#mask2)">
<path d="M133.286 187.501L134.51 136.282L161.831 125.301L212.695 163.875L219.705 187.501L214.772 191.879L218.147 197.884L193.485 239.42L146.993 192.904L135.006 191.879L133.286 187.501Z" fill="#811F19"/>
<path d="M133.286 187.501L134.51 136.282L161.831 125.301L146.993 192.904L135.006 191.879L133.286 187.501Z" fill="#77150F"/>
<path d="M133.286 187.501L147.981 188.504L188.057 229.659L193.485 239.42L146.993 192.904L135.006 191.879L133.286 187.501Z" fill="#6D0B05"/>
</g>
<mask id="mask3" style="mask-type:alpha" maskUnits="userSpaceOnUse" x="128" y="237" width="128" height="73">
<path d="M128.815 286.264V261.276H140.58L194.185 290.53L222.912 282.978L255.194 237.814L255.934 241.368C245.914 261.26 225.696 301.222 224.986 301.933C224.275 302.643 203.267 307.165 192.852 309.337L132.88 291.567L128.815 286.264Z" fill="#C4C4C4"/>
</mask>
<g mask="url(#mask3)">
<path opacity="0.4" d="M128.815 286.264V261.276H140.58L194.185 290.53L222.912 282.978L255.194 237.814L255.934 241.368C245.914 261.26 225.696 301.222 224.986 301.933C224.275 302.643 203.267 307.165 192.852 309.337L132.88 291.567L128.815 286.264Z" fill="#C4C4C4"/>
<path d="M128.815 286.264V267.313H140.58L196.89 298.167L224.986 291.567L255.194 237.814L255.934 241.368C245.914 261.26 225.696 301.222 224.986 301.933C224.275 302.643 203.267 307.165 192.852 309.337L132.88 291.567L128.815 286.264Z" fill="#151C25"/>
<path d="M128.815 286.264L128.815 270.595H139.383L192.852 305.126L223.149 299.48L224.986 301.933C224.986 301.933 203.267 307.165 192.852 309.337L132.88 291.567L128.815 286.264Z" fill="#0B121B"/>
<path d="M128.815 267.47V261.276H140.58L194.185 290.53L222.912 282.978L255.194 237.814L255.934 241.368C245.914 261.26 225.359 291.777 225.359 291.777L196.572 298.428L140.58 267.47H128.815Z" fill="#6B1218"/>
<path d="M128.815 267.47V263.543H140.58L197.607 295.34L224.615 288.699L255.194 237.814L255.934 241.368C245.914 261.26 225.359 291.777 225.359 291.777L196.572 298.428L140.58 267.47H128.815Z" fill="#751C22"/>
</g>
<mask id="mask4" style="mask-type:alpha" maskUnits="userSpaceOnUse" x="128" y="127" width="139" height="162">
<path d="M128.817 199.514V257.971H141.32L195.027 287.35C199.904 290.132 215.117 286.191 222.114 283.873C228.077 277.893 247.097 250.669 255.861 237.805L266.512 226.932L242.738 132.353L236.254 127.547H232.172L221.11 152.307L240.533 183.251L230.541 197.015L222.114 198.834L195.027 241.139L147.391 200.717L128.817 199.514Z" fill="#C4C4C4"/>
</mask>
<g mask="url(#mask4)">
<path d="M128.817 199.514V257.971H141.32L195.027 287.35C199.904 290.132 215.117 286.191 222.114 283.873C228.077 277.893 247.097 250.669 255.861 237.805L266.512 226.932L242.738 132.353L236.254 127.547H232.172L221.11 152.307L240.533 183.251L230.541 197.015L222.114 198.834L195.027 241.139L147.391 200.717L128.817 199.514Z" fill="#6C0A04"/>
<path d="M159.174 244.611L128.817 257.971H141.32L195.027 287.35C199.904 290.132 215.117 286.191 222.114 283.873C228.077 277.893 247.097 250.669 255.861 237.805L266.512 226.932L242.738 132.353L236.254 127.547H232.172L221.11 152.307L240.533 183.251L230.541 197.015L222.114 198.834L195.027 241.139L147.391 200.717L159.174 244.611Z" fill="#3B0A0A"/>
<path d="M128.817 243.07L128.817 257.971H141.32L195.027 287.35C199.904 290.132 215.117 286.191 222.114 283.873C228.078 277.893 247.097 250.669 255.861 237.805L266.512 226.932L242.738 132.353L236.254 127.547L225.416 153.301L242.738 181.843L251.18 200.102L222.114 255.963L206.081 277.367L148.076 243.07H128.817Z" fill="#8B2923"/>
<path d="M128.817 241.395L128.817 257.971H141.32L195.027 287.35C198.715 285.653 202.859 282.431 206.081 277.367L148.641 240.884L128.817 241.395Z" fill="#680600"/>
<path d="M148.641 240.884L141.32 257.971L195.027 287.35C198.715 285.653 202.859 282.431 206.081 277.367L148.641 240.884Z" fill="#6D0B05"/>
<path d="M195.027 241.139L222.114 256.787L252.558 200.717L252.799 198.84L246.582 187.87L240.533 183.251L230.541 197.015L222.114 198.834L195.027 241.139Z" fill="#6D0B05"/>
<path d="M148.599 241.139L205.794 276.572L221.11 256.406L195.027 241.139L147.391 200.717L148.599 241.139Z" fill="#77150F"/>
<path d="M148.599 241.139L206.337 277.454L221.778 256.669L195.027 241.139L148.599 241.139Z" fill="#811F19"/>
</g>
</g>
<mask id="mask5" style="mask-type:alpha" maskUnits="userSpaceOnUse" x="0" y="0" width="258" height="305">
<path d="M243.244 121.675C246.023 81.3045 227.085 0.563599 129.1 0.563599C31.1156 0.563599 12.1776 81.3045 14.9567 121.675L18.6275 123.156V129.356C16.5052 130.787 15.972 132.579 15.9707 133.296C15.4743 139.704 15.2771 144.238 15.1181 147.892C14.5955 159.904 14.4863 162.415 5.52556 190.748C-5.44116 225.424 4.57776 243.187 10.5546 253.783C10.947 254.479 11.3221 255.144 11.6726 255.781C17.3611 266.115 29.4341 285.115 33.6372 291.336C36.9997 296.312 43.5566 299.35 46.4147 300.246C49.8052 301.283 57.9481 303.592 63.3953 304.534C68.8426 305.475 76.1448 303.805 79.115 302.852L124.495 285.93H133.706L179.086 302.852C182.056 303.805 189.358 305.475 194.805 304.534C200.252 303.592 208.395 301.283 211.786 300.246C214.644 299.35 221.201 296.312 224.563 291.336C228.766 285.115 240.839 266.115 246.528 255.781C246.878 255.144 247.254 254.479 247.646 253.783C253.623 243.187 263.642 225.424 252.675 190.748C243.714 162.415 243.605 159.904 243.082 147.892C242.923 144.238 242.726 139.704 242.23 133.296C242.228 132.579 241.695 130.787 239.573 129.356V123.156L243.244 121.675Z" fill="#C4C4C4"/>
</mask>
<g mask="url(#mask5)">
<mask id="mask6" style="mask-type:alpha" maskUnits="userSpaceOnUse" x="6" y="-6" width="124" height="129">
<path d="M129.359 106.048V-5.17615C89.429 2.83577 9.10323 18.8596 7.2424 18.8596C5.38157 18.8596 11.4456 88.1254 14.5322 122.733C32.1615 110.881 75.1291 107.688 129.359 106.048Z" fill="#711A1A"/>
</mask>
<g mask="url(#mask6)">
<path d="M129.359 106.048V-5.17615C89.429 2.83577 9.10323 18.8596 7.2424 18.8596C5.38157 18.8596 11.4456 88.1254 14.5322 122.733C32.1615 110.881 75.1291 107.688 129.359 106.048Z" fill="#711A1A"/>
<path d="M129.359 117.629V83.6069C129.359 83.6069 79.827 83.9888 57.0733 87.0323C31.4406 90.461 6.87982 102.104 6.87982 102.104C6.87982 102.104 11.4456 112.147 14.5322 122.733C32.1615 119.108 75.1291 118.131 129.359 117.629Z" fill="#681111"/>
<path d="M129.359 117.813V85.0143C129.359 85.0143 79.827 85.3824 57.0733 88.3165C31.4406 91.6218 6.87982 102.846 6.87982 102.846C6.87982 102.846 11.4456 112.528 14.5322 122.733C32.1615 119.238 75.1291 118.297 129.359 117.813Z" fill="#7B2424"/>
</g>
<mask id="mask7" style="mask-type:alpha" maskUnits="userSpaceOnUse" x="38" y="125" width="87" height="115">
<path d="M124.915 187.501L123.69 136.282L96.3696 125.301L45.5052 163.875L38.4959 187.501L43.4284 191.879L40.0536 197.884L64.716 239.42L111.208 192.904L123.195 191.879L124.915 187.501Z" fill="#C4C4C4"/>
</mask>
<g mask="url(#mask7)">
<path d="M124.915 187.501L123.69 136.282L96.3696 125.301L45.5052 163.875L38.4959 187.501L43.4284 191.879L40.0536 197.884L64.716 239.42L111.208 192.904L123.195 191.879L124.915 187.501Z" fill="#811F19"/>
<path d="M124.915 187.501L123.69 136.282L96.3696 125.301L111.208 192.904L123.195 191.879L124.915 187.501Z" fill="#77150F"/>
<path d="M124.915 187.501L110.219 188.504L70.1432 229.659L64.716 239.42L111.208 192.904L123.195 191.879L124.915 187.501Z" fill="#6D0B05"/>
</g>
<mask id="mask8" style="mask-type:alpha" maskUnits="userSpaceOnUse" x="2" y="237" width="128" height="73">
<path d="M129.385 286.264V261.276H117.621L64.0157 290.53L35.2881 282.978L3.00667 237.814L2.26627 241.368C12.2864 261.26 32.5042 301.222 33.215 301.933C33.9258 302.643 54.9334 307.165 65.3484 309.337L125.321 291.567L129.385 286.264Z" fill="#C4C4C4"/>
</mask>
<g mask="url(#mask8)">
<path opacity="0.4" d="M129.385 286.264V261.276H117.621L64.0157 290.53L35.2881 282.978L3.00667 237.814L2.26627 241.368C12.2864 261.26 32.5042 301.222 33.215 301.933C33.9258 302.643 54.9334 307.165 65.3484 309.337L125.321 291.567L129.385 286.264Z" fill="#C4C4C4"/>
<path d="M129.385 286.264V267.313H117.621L61.3103 298.167L33.215 291.567L3.00667 237.814L2.26627 241.368C12.2864 261.26 32.5042 301.222 33.215 301.933C33.9258 302.643 54.9334 307.165 65.3484 309.337L125.321 291.567L129.385 286.264Z" fill="#151C25"/>
<path d="M129.385 286.264L129.385 270.595H118.818L65.3484 305.126L35.0512 299.48L33.215 301.933C33.215 301.933 54.9334 307.165 65.3484 309.337L125.321 291.567L129.385 286.264Z" fill="#0B121B"/>
<path d="M129.385 267.47V261.276H117.621L64.0157 290.53L35.2881 282.978L3.00667 237.814L2.26627 241.368C12.2864 261.26 32.8416 291.777 32.8416 291.777L61.6285 298.428L117.621 267.47H129.385Z" fill="#6B1218"/>
<path d="M129.385 267.47V263.543H117.621L60.5932 295.34L33.5856 288.699L3.00667 237.814L2.26627 241.368C12.2864 261.26 32.8416 291.777 32.8416 291.777L61.6285 298.428L117.621 267.47H129.385Z" fill="#751C22"/>
</g>
<mask id="mask9" style="mask-type:alpha" maskUnits="userSpaceOnUse" x="-9" y="127" width="139" height="162">
<path d="M129.384 199.514V257.971H116.881L63.1732 287.35C58.2961 290.132 43.0832 286.191 36.0865 283.873C30.1231 277.893 11.1039 250.669 2.33981 237.805L-8.3118 226.932L15.4623 132.353L21.947 127.547H26.0287L37.0907 152.307L17.6673 183.251L27.6591 197.015L36.0865 198.834L63.1732 241.139L110.81 200.717L129.384 199.514Z" fill="#C4C4C4"/>
</mask>
<g mask="url(#mask9)">
<path d="M129.384 199.514V257.971H116.881L63.1732 287.35C58.2961 290.132 43.0832 286.191 36.0865 283.873C30.1231 277.893 11.1039 250.669 2.33981 237.805L-8.3118 226.932L15.4623 132.353L21.947 127.547H26.0287L37.0907 152.307L17.6673 183.251L27.6591 197.015L36.0865 198.834L63.1732 241.139L110.81 200.717L129.384 199.514Z" fill="#6C0A04"/>
<path d="M99.0265 244.611L129.384 257.971H116.881L63.1732 287.35C58.2961 290.132 43.0832 286.191 36.0865 283.873C30.1231 277.893 11.1039 250.669 2.33981 237.805L-8.3118 226.932L15.4623 132.353L21.947 127.547H26.0287L37.0907 152.307L17.6673 183.251L27.6591 197.015L36.0865 198.834L63.1732 241.139L110.81 200.717L99.0265 244.611Z" fill="#3B0A0A"/>
<path d="M129.384 243.07L129.384 257.971H116.881L63.1731 287.35C58.2961 290.132 43.0832 286.191 36.0864 283.873C30.1231 277.893 11.1039 250.669 2.3398 237.805L-8.31181 226.932L15.4623 132.353L21.947 127.547L32.7844 153.301L15.4623 181.843L7.02051 200.102L36.0864 255.963L52.1195 277.367L110.125 243.07H129.384Z" fill="#8B2923"/>
<path d="M129.384 241.395L129.384 257.971H116.881L63.1731 287.35C59.4852 285.653 55.342 282.431 52.1195 277.367L109.56 240.884L129.384 241.395Z" fill="#680600"/>
<path d="M109.56 240.884L116.881 257.971L63.1731 287.35C59.4851 285.653 55.3419 282.431 52.1194 277.367L109.56 240.884Z" fill="#6D0B05"/>
<path d="M63.1731 241.139L36.0865 256.787L5.64282 200.717L5.40133 198.84L11.6188 187.87L17.6673 183.251L27.6591 197.015L36.0865 198.834L63.1731 241.139Z" fill="#6D0B05"/>
<path d="M109.601 241.139L52.4066 276.572L37.0908 256.406L63.1732 241.139L110.81 200.717L109.601 241.139Z" fill="#77150F"/>
<path d="M109.601 241.139L51.8633 277.454L36.423 256.669L63.1732 241.139L109.601 241.139Z" fill="#811F19"/>
</g>
</g>
</svg>
